<?xml version="1.0" encoding="iso-8859-1"?>
<!-- Uploaded to: SVG Repo, www.svgrepo.com, Generator: SVG Repo Mixer Tools -->
<svg height="800px" width="800px" version="1.1" id="Layer_1" xmlns="http://www.w3.org/2000/svg" xmlns:xlink="http://www.w3.org/1999/xlink" 
	 viewBox="0 0 392.663 392.663" xml:space="preserve">
<g>
	<path style="fill:#FFFFFF;" d="M323.879,239.451c0-4.202,2.78-8.275,6.853-10.02c24.242-10.279,40.016-33.939,40.016-60.251
		c0-36.073-29.349-65.422-65.422-65.422c-2.263,0-4.655,0.129-7.37,0.453c-5.56,0.646-10.796-3.168-11.895-8.727
		c-8.469-42.667-46.287-73.632-89.794-73.632s-81.196,30.901-89.729,73.568c-1.099,5.56-6.335,9.374-11.895,8.727
		c-2.651-0.323-5.042-0.453-7.37-0.453c-36.073,0-65.422,29.35-65.422,65.422c0,26.376,15.709,50.101,40.016,60.251
		c4.202,1.745,6.659,5.818,6.659,10.02"/>
</g>
<g>
	<path style="fill:#194F82;" d="M300.541,246.174h-22.303c-0.646-1.551-1.228-3.103-1.875-4.59l15.774-15.774
		c4.267-4.267,4.267-11.119,0-15.451l-28.832-28.832c-4.267-4.267-11.119-4.267-15.45,0l-15.774,15.774
		c-1.487-0.711-3.038-1.293-4.59-1.875v-22.303c0-6.012-4.848-10.925-10.925-10.925h-40.727c-6.012,0-10.925,4.848-10.925,10.925
		v22.303c-1.552,0.646-3.103,1.228-4.59,1.875l-15.774-15.774c-4.073-4.073-11.378-4.073-15.451,0l-28.768,28.832
		c-4.267,4.267-4.267,11.119,0,15.451l15.774,15.774c-0.711,1.487-1.293,3.038-1.875,4.59H91.927
		c-6.012,0-10.925,4.848-10.925,10.925v40.727c0,6.012,4.848,10.925,10.925,10.925h22.303c0.646,1.552,1.228,3.103,1.875,4.59
		l-15.774,15.774c-4.267,4.267-4.267,11.119,0,15.451l28.768,28.768c4.267,4.267,11.119,4.267,15.451,0l15.774-15.774
		c1.487,0.711,3.038,1.293,4.59,1.875v22.303c0,6.012,4.848,10.925,10.925,10.925h40.727c6.012,0,10.925-4.848,10.925-10.925
		v-22.303c1.552-0.646,3.103-1.228,4.59-1.875l15.774,15.774c4.267,4.267,11.119,4.267,15.45,0l28.768-28.768
		c4.267-4.267,4.267-11.119,0-15.451l-15.774-15.838c0.711-1.487,1.293-3.038,1.875-4.59h22.303c6.012,0,10.925-4.848,10.925-10.925
		v-40.727C311.467,251.022,306.618,246.174,300.541,246.174z M289.681,286.836h-19.329c-4.913,0-9.18,3.232-10.537,8.016
		c-1.487,5.301-3.556,10.408-6.271,15.063c-2.392,4.267-1.681,9.632,1.745,13.123l13.705,13.705l-13.382,13.317l-13.705-13.705
		c-3.491-3.491-8.792-4.202-13.123-1.745c-4.719,2.715-9.762,4.784-15.063,6.271c-4.719,1.293-8.016,5.624-8.016,10.537v19.329
		h-18.877v-19.329c0-4.913-3.232-9.18-8.016-10.537c-5.301-1.487-10.408-3.556-15.063-6.271c-4.267-2.392-9.632-1.681-13.123,1.745
		l-13.705,13.705l-13.317-13.317l13.705-13.705c3.491-3.491,4.202-8.792,1.745-13.123c-2.715-4.719-4.784-9.762-6.271-15.063
		c-1.293-4.719-5.56-8.016-10.537-8.016h-19.329V267.96h19.329c4.913,0,9.18-3.297,10.537-8.016
		c1.487-5.301,3.556-10.343,6.271-15.063c2.392-4.267,1.681-9.632-1.745-13.123l-13.705-13.705l13.382-13.382l13.705,13.705
		c3.491,3.491,8.792,4.202,13.123,1.745c4.719-2.715,9.762-4.784,15.063-6.271c4.719-1.293,8.016-5.624,8.016-10.537v-19.329h18.877
		v19.394c0,4.913,3.297,9.18,8.016,10.537c5.301,1.487,10.408,3.556,15.063,6.271c4.267,2.392,9.632,1.681,13.123-1.745
		l13.705-13.705l13.382,13.382l-13.705,13.705c-3.491,3.491-4.202,8.792-1.745,13.123c2.715,4.719,4.784,9.762,6.271,15.063
		c1.293,4.719,5.624,8.016,10.537,8.016h19.329v18.877h-0.065V286.836z"/>
	<path style="fill:#194F82;" d="M196.331,229.236c-26.57,0-48.162,21.527-48.162,48.162s21.592,48.162,48.162,48.162
		s48.162-21.527,48.162-48.162S222.901,229.236,196.331,229.236z M196.331,303.774c-14.545,0-26.376-11.83-26.376-26.376
		s11.83-26.376,26.376-26.376s26.376,11.83,26.376,26.376S210.877,303.774,196.331,303.774z"/>
	<path style="fill:#194F82;" d="M305.39,81.907h-0.065C291.426,33.939,247.014,0,196.331,0S101.236,33.939,87.402,81.907h-0.065
		c-48.162,0-87.273,39.111-87.273,87.273c0,35.168,20.945,66.715,53.333,80.356c5.56,2.327,11.96-0.259,14.287-5.818
		c2.327-5.56-0.259-11.96-5.818-14.287c-24.242-10.279-40.016-33.939-40.016-60.25c0-36.073,29.349-65.422,65.422-65.422
		c2.263,0,4.655,0.129,7.37,0.453c5.56,0.646,10.796-3.168,11.895-8.727c8.469-42.667,46.287-73.632,89.794-73.632
		s81.261,30.901,89.794,73.568c1.099,5.56,6.335,9.374,11.895,8.727c2.651-0.323,5.042-0.453,7.37-0.453
		c36.073,0,65.422,29.35,65.422,65.422c0,26.376-15.709,50.101-40.016,60.251c-5.56,2.327-8.663,8.986-5.818,14.287
		c4.848,8.986,12.929,6.4,14.287,5.818c32.388-13.705,53.333-45.188,53.333-80.356C392.598,121.018,353.487,81.907,305.39,81.907z"
		/>
</g>
<path style="fill:#FFC10D;" d="M305.261,125.414c-1.487,0-3.103,0.065-4.848,0.323l0,0c-16.873,1.875-32.388-9.438-35.685-26.117
	l0,0c-6.465-32.453-35.232-56.113-68.461-56.113c-33.164,0-61.996,23.596-68.396,56.048l0,0
	c-3.297,16.679-18.812,27.992-35.685,26.117c-1.875-0.259-3.426-0.323-4.848-0.323c-24.048,0-43.636,19.523-43.636,43.636
	c0,17.648,10.537,33.358,26.634,40.275h31.224l27.733-27.733c4.202-4.008,11.378-4.008,15.451,0.065l15.774,15.774
	c1.487-0.711,3.038-1.293,4.59-1.875v-22.303c0-6.012,4.848-10.925,10.925-10.925h40.727c6.012,0,10.925,4.848,10.925,10.925v22.303
	c1.552,0.646,3.103,1.228,4.59,1.875l15.774-15.774c4.267-4.267,11.119-4.267,15.451,0l27.733,27.733h31.224
	c16.226-6.853,26.634-22.626,26.634-40.275C348.962,145.067,329.374,125.414,305.261,125.414z"/>
<path style="fill:#56ACE0;" d="M241.972,218.376c-3.491,3.491-8.792,4.202-13.123,1.745c-4.719-2.715-9.762-4.784-15.063-6.271
	c-4.719-1.293-8.016-5.624-8.016-10.537v-19.329h-18.877v19.394c0,4.913-3.232,9.18-8.016,10.537
	c-5.301,1.487-10.408,3.556-15.063,6.271c-4.267,2.392-9.632,1.681-13.123-1.745l-13.705-13.576l-13.317,13.317l13.705,13.705
	c3.491,3.491,4.202,8.792,1.745,13.123c-2.715,4.719-4.784,9.762-6.271,15.063c-1.293,4.719-5.56,8.016-10.537,8.016h-19.329v18.877
	h19.329c4.913,0,9.18,3.297,10.537,8.016c1.487,5.301,3.556,10.343,6.271,15.063c2.392,4.267,1.681,9.632-1.745,13.123
	l-13.705,13.705l13.382,13.382l13.705-13.705c3.491-3.491,8.792-4.202,13.123-1.745c4.719,2.715,9.762,4.784,15.063,6.271
	c4.719,1.293,8.016,5.624,8.016,10.537v19.329h18.877v-19.523c0-4.978,3.297-9.18,8.016-10.537
	c5.301-1.487,10.408-3.556,15.063-6.271c4.267-2.392,9.632-1.681,13.123,1.745l13.705,13.705l13.382-13.382l-13.705-13.705
	c-3.491-3.491-4.202-8.792-1.745-13.123c2.715-4.719,4.784-9.762,6.271-15.063c1.293-4.719,5.624-8.016,10.537-8.016h19.329v-18.877
	h-19.329c-4.913,0-9.18-3.232-10.537-8.016c-1.487-5.301-3.556-10.408-6.271-15.063c-2.392-4.267-1.681-9.632,1.745-13.123
	l13.705-13.705l-13.446-13.317L241.972,218.376z M244.493,277.398c0,26.57-21.527,48.162-48.162,48.162
	s-48.162-21.527-48.162-48.162s21.592-48.162,48.162-48.162S244.493,250.828,244.493,277.398z"/>
</svg>